<svg xmlns="http://www.w3.org/2000/svg" viewBox="0 0 1200 420" role="img" aria-labelledby="title desc"><title>Aiden documentation hub cover</title><desc>Abstract retail, warehouse, finance, and integration documentation lanes.</desc><rect width="1200" height="420" fill="#071824"/><path d="M0 330 C180 250 330 380 520 290 C710 200 840 260 980 190 C1080 140 1140 150 1200 120 L1200 420 L0 420 Z" fill="#11B58A" opacity="0.26"/><path d="M0 235 C210 145 360 260 540 185 C750 100 900 150 1200 60" fill="none" stroke="#37D6B3" stroke-width="18" opacity="0.65"/><g fill="#F4FAF8"><rect x="108" y="98" width="170" height="44" rx="10" opacity="0.95"/><rect x="108" y="164" width="250" height="18" rx="9" opacity="0.7"/><rect x="108" y="200" width="210" height="18" rx="9" opacity="0.55"/><rect x="710" y="94" width="330" height="194" rx="20" opacity="0.12"/><rect x="748" y="130" width="108" height="28" rx="8" opacity="0.85"/><rect x="748" y="182" width="240" height="14" rx="7" opacity="0.56"/><rect x="748" y="216" width="190" height="14" rx="7" opacity="0.4"/></g></svg>
